<svg width="17" height="15" viewBox="0 0 17 15" fill="none" xmlns="http://www.w3.org/2000/svg">
<path d="M3.56768 1.66741C3.56745 2.10941 3.37928 2.53322 3.04458 2.84561C2.70987 3.158 2.25605 3.33337 1.78295 3.33315C1.30984 3.33293 0.856212 3.15713 0.521844 2.84443C0.187476 2.53173 -0.000236329 2.10774 2.23302e-07 1.66574C0.000236775 1.22374 0.188403 0.799926 0.523106 0.487539C0.857808 0.175152 1.31163 -0.000220793 1.78473 2.08623e-07C2.25784 0.00022121 2.71147 0.176018 3.04584 0.488718C3.3802 0.801417 3.56792 1.2254 3.56768 1.66741ZM3.6212 4.56725H0.0535154V15H3.6212V4.56725ZM9.25813 4.56725H5.70829V15H9.22246V9.5253C9.22246 6.47547 13.4769 6.19216 13.4769 9.5253V15H17V8.39203C17 3.25065 10.703 3.44231 9.22246 5.96717L9.25813 4.56725Z" fill="#0052A5"/>
</svg>
