<svg width="22" height="24" viewBox="0 0 22 24" fill="none" xmlns="http://www.w3.org/2000/svg">
<path d="M1.57143 22.44H7.37314V14.5201C7.37314 14.1634 7.49519 13.8644 7.73929 13.6231C7.98233 13.3808 8.28352 13.2597 8.64286 13.2597H13.3571C13.7165 13.2597 14.0182 13.3808 14.2623 13.6231C14.5053 13.8644 14.6269 14.1634 14.6269 14.5201V22.44H20.4286V8.88086C20.4286 8.7207 20.3935 8.57511 20.3233 8.44407C20.2531 8.31303 20.1572 8.19863 20.0357 8.10088L11.5751 1.77056C11.4138 1.6312 11.2221 1.56152 11 1.56152C10.7779 1.56152 10.5867 1.6312 10.4264 1.77056L1.96429 8.10088C1.84381 8.20071 1.74795 8.31511 1.67671 8.44407C1.60548 8.57303 1.57038 8.71862 1.57143 8.88086V22.44ZM0 22.44V8.88086C0 8.48151 0.0900951 8.10348 0.270286 7.74677C0.450476 7.39006 0.698762 7.09626 1.01514 6.86539L9.47729 0.503868C9.92043 0.167956 10.4264 0 10.9953 0C11.5641 0 12.0733 0.167956 12.5227 0.503868L20.9849 6.86383C21.3023 7.0947 21.5506 7.38902 21.7297 7.74677C21.9099 8.10348 22 8.48151 22 8.88086V22.44C22 22.8581 21.8434 23.2226 21.5301 23.5336C21.2169 23.8445 20.8497 24 20.4286 24H14.3251C13.9648 24 13.663 23.8794 13.42 23.6381C13.177 23.3958 13.0554 23.0963 13.0554 22.7395V14.8212H8.94457V22.7395C8.94457 23.0973 8.82305 23.3968 8.58 23.6381C8.33695 23.8794 8.03576 24 7.67643 24H1.57143C1.15029 24 0.783095 23.8445 0.469857 23.5336C0.156619 23.2226 0 22.8581 0 22.44Z" fill="#0D2C60"/>
</svg>
