<svg width="24" height="24" viewBox="0 0 24 24" fill="none" xmlns="http://www.w3.org/2000/svg">
<path d="M23.1102 11.0341C22.5707 10.5175 21.8631 10.2127 21.1171 10.1758C20.3711 10.1388 19.6368 10.3722 19.049 10.8331L16.646 3.55946C16.4461 2.94415 16.072 2.4 15.5691 1.99292C15.0662 1.58583 14.4561 1.33327 13.8127 1.26581L2.23495 0.0110413C1.93487 -0.0204323 1.63155 0.0155872 1.34719 0.116464C1.06283 0.21734 0.804625 0.380521 0.591468 0.594064C0.378311 0.807607 0.215598 1.06611 0.115238 1.35065C0.0148772 1.63519 -0.0205909 1.93857 0.0114287 2.23859L1.26621 13.8135C1.33367 14.4569 1.58624 15.067 1.99333 15.5699C2.40042 16.0728 2.94457 16.4468 3.55989 16.6468L10.8322 19.0349C10.3872 19.5794 10.1441 20.261 10.1441 20.9643C10.1466 21.7686 10.4672 22.5393 11.036 23.1081C11.6048 23.6769 12.3755 23.9975 13.1799 24C13.9851 23.9978 14.7568 23.6772 15.3265 23.1082L23.1115 15.3246C23.6804 14.7553 24 13.9835 24 13.1787C24 12.3739 23.6804 11.602 23.1115 11.0327L23.1102 11.0341ZM3.97815 15.3651C3.61 15.2433 3.28458 15.0184 3.04061 14.717C2.79663 14.4156 2.64437 14.0505 2.60194 13.665L1.38764 2.34517L6.79803 7.75551C6.70177 8.03819 6.68626 8.34212 6.75323 8.63314C6.82021 8.92415 6.96702 9.19072 7.17716 9.40289C7.32225 9.55422 7.49609 9.67505 7.6885 9.75829C7.8809 9.84153 8.088 9.88552 8.29763 9.88766C8.50726 9.8898 8.71521 9.85006 8.90927 9.77077C9.10334 9.69148 9.27962 9.57423 9.42777 9.4259C9.57592 9.27757 9.69295 9.10115 9.77201 8.90699C9.85107 8.71283 9.89056 8.50484 9.88816 8.29521C9.88577 8.08559 9.84153 7.87855 9.75805 7.68625C9.67458 7.49395 9.55354 7.32025 9.40203 7.17535C9.19404 6.96408 8.92942 6.81742 8.64002 6.75303C8.35062 6.68864 8.04878 6.70926 7.77082 6.81241L2.34694 1.38859L13.6669 2.60287C14.0532 2.64227 14.4196 2.79344 14.7213 3.03786C15.023 3.28228 15.2469 3.60937 15.3656 3.97907L17.971 11.8854L11.886 17.9704L3.97815 15.3651ZM19.7762 11.9785C20.0129 11.7439 20.3139 11.5846 20.641 11.5209C20.9682 11.4572 21.3069 11.4918 21.6144 11.6204C21.9219 11.749 22.1844 11.9659 22.3687 12.2436C22.553 12.5213 22.6509 12.8474 22.6501 13.1807C22.6496 13.4017 22.6054 13.6204 22.5199 13.8241C22.4345 14.0279 22.3095 14.2128 22.1522 14.368L14.3658 22.1529C14.045 22.4611 13.6173 22.6331 13.1724 22.6331C12.7276 22.6331 12.2999 22.4611 11.9791 22.1529C11.6669 21.8366 11.4919 21.41 11.4919 20.9656C11.4919 20.5212 11.6669 20.0947 11.9791 19.7783L19.7762 11.9785Z" fill="#0D2C60"/>
</svg>
