<svg width="25" height="25" viewBox="0 0 25 25" fill="none" xmlns="http://www.w3.org/2000/svg">
<path d="M14.7523 15.7618L13.6655 19.563C13.2583 20.9859 11.2417 20.9859 10.8345 19.563L9.74896 15.7618C9.68023 15.5213 9.55136 15.3023 9.37452 15.1255C9.19768 14.9486 8.9787 14.8198 8.73824 14.751L4.937 13.6655C3.51415 13.2583 3.51415 11.2417 4.937 10.8345L8.73824 9.74896C8.9787 9.68023 9.19768 9.55136 9.37452 9.37452C9.55136 9.19768 9.68023 8.9787 9.74896 8.73824L10.8345 4.937C11.2417 3.51415 13.2583 3.51415 13.6655 4.937L14.751 8.73824C14.8198 8.9787 14.9486 9.19768 15.1255 9.37452C15.3023 9.55136 15.5213 9.68023 15.7618 9.74896L19.563 10.8345C20.9859 11.2417 20.9859 13.2583 19.563 13.6655L15.7618 14.751C15.5213 14.8198 15.3023 14.9486 15.1255 15.1255C14.9486 15.3023 14.8198 15.5213 14.751 15.7618M21.5354 21.7145L21.0742 23.5642C21.0128 23.8119 20.6608 23.8119 20.5982 23.5642L20.1358 21.7145C20.125 21.6715 20.1027 21.6323 20.0714 21.601C20.0401 21.5697 20.0009 21.5474 19.958 21.5366L18.1082 21.0742C17.8605 21.0128 17.8605 20.6608 18.1082 20.5982L19.958 20.1358C20.0009 20.125 20.0401 20.1027 20.0714 20.0714C20.1027 20.0401 20.125 20.0009 20.1358 19.958L20.5982 18.1082C20.6596 17.8605 21.0116 17.8605 21.0742 18.1082L21.5366 19.958C21.5474 20.0009 21.5697 20.0401 21.601 20.0714C21.6323 20.1027 21.6715 20.125 21.7145 20.1358L23.5642 20.5982C23.8119 20.6596 23.8119 21.0116 23.5642 21.0742L21.7145 21.5366C21.6715 21.5474 21.6323 21.5697 21.601 21.601C21.5697 21.6323 21.5462 21.6715 21.5354 21.7145ZM4.36295 4.54204L3.90175 6.39175C3.84042 6.63953 3.48716 6.63953 3.42583 6.39175L2.9634 4.54204C2.95257 4.4991 2.93032 4.45989 2.899 4.42858C2.86769 4.39727 2.82848 4.37501 2.78554 4.36418L0.93583 3.90175C0.688057 3.84042 0.688057 3.48716 0.93583 3.42583L2.78554 2.9634C2.82848 2.95257 2.86769 2.93032 2.899 2.899C2.93032 2.86769 2.95257 2.82848 2.9634 2.78554L3.42583 0.93583C3.48716 0.688057 3.84042 0.688057 3.90175 0.93583L4.36418 2.78554C4.37501 2.82848 4.39727 2.86769 4.42858 2.899C4.45989 2.93032 4.4991 2.95257 4.54204 2.9634L6.39175 3.42583C6.63953 3.48716 6.63953 3.84042 6.39175 3.90175L4.54204 4.36418C4.4991 4.37501 4.45989 4.39727 4.42858 4.42858C4.39727 4.45989 4.37379 4.4991 4.36295 4.54204Z" stroke="#0D2C60" stroke-width="1.5" stroke-miterlimit="10" stroke-linecap="round" stroke-linejoin="round"/>
</svg>
