<svg width="26" height="27" viewBox="0 0 26 27" fill="none" xmlns="http://www.w3.org/2000/svg">
<path d="M9.97105 13.2175L9.32225 13.5938L9.32502 13.5985L9.97105 13.2175ZM9.01484 10.7587L9.74979 10.6092L9.74966 10.6086L9.01484 10.7587ZM10.1934 7.79875L9.72304 7.21455L9.72215 7.21527L10.1934 7.79875ZM11.2115 7.9925L10.5576 8.35983L10.558 8.3606L11.2115 7.9925ZM11.7079 8.87375L12.3614 8.5057L12.3613 8.50565L11.7079 8.87375ZM12.2586 10.2913L11.5128 10.2123L11.5125 10.2148L12.2586 10.2913ZM11.428 11.5628L10.8646 11.0677L10.8646 11.0678L11.428 11.5628ZM11.4249 11.5662L11.9878 12.0619L11.9884 12.0613L11.4249 11.5662ZM14.6776 17.875L14.3025 18.5245L14.3072 18.5272L14.6776 17.875ZM17.1622 18.8213L17.3094 18.0858L17.3087 18.0857L17.1622 18.8213ZM20.1534 17.655L20.732 18.1322L20.7327 18.1313L20.1534 17.655ZM19.9576 16.6475L19.5949 17.304L19.5961 17.3046L19.9576 16.6475ZM19.0683 16.1562L19.431 15.4998L19.4296 15.499L19.0683 16.1562ZM19.057 16.15L19.4182 15.4928L19.4182 15.4927L19.057 16.15ZM17.6346 15.6112L17.7095 16.3575L17.7119 16.3573L17.6346 15.6112ZM16.3497 16.4333L15.8605 15.8648L15.8599 15.8652L16.3497 16.4333ZM3.90789 6.5C4.32211 6.5 4.65789 6.16421 4.65789 5.75C4.65789 5.33579 4.32211 5 3.90789 5V5.75V6.5ZM0.75 5C0.335786 5 0 5.33579 0 5.75C0 6.16421 0.335786 6.5 0.75 6.5V5.75V5ZM3.90789 14C4.32211 14 4.65789 13.6642 4.65789 13.25C4.65789 12.8358 4.32211 12.5 3.90789 12.5V13.25V14ZM0.75 12.5C0.335786 12.5 0 12.8358 0 13.25C0 13.6642 0.335786 14 0.75 14V13.25V12.5ZM3.90789 21.5C4.32211 21.5 4.65789 21.1642 4.65789 20.75C4.65789 20.3358 4.32211 20 3.90789 20V20.75V21.5ZM0.75 20C0.335786 20 0 20.3358 0 20.75C0 21.1642 0.335786 21.5 0.75 21.5V20.75V20ZM2.64474 10.75H3.39474C3.39474 8.3717 3.39636 6.66407 3.57296 5.36476C3.74651 4.08781 4.07641 3.3179 4.65248 2.74832L4.12516 2.215L3.59784 1.68168C2.69348 2.57585 2.28318 3.71656 2.08662 5.16274C1.89311 6.58655 1.89474 8.41455 1.89474 10.75H2.64474ZM4.12516 2.215L4.65248 2.74832C5.22996 2.17735 6.01157 1.84941 7.30552 1.67703C8.62024 1.50187 10.3474 1.5 12.75 1.5V0.75V0C10.3892 0 8.54418 -0.00124776 7.10743 0.190162C5.64991 0.384339 4.50078 0.788903 3.59784 1.68168L4.12516 2.215ZM12.75 0.75V1.5H14.6447V0.75V0H12.75V0.75ZM14.6447 0.75V1.5C17.0474 1.5 18.7749 1.50156 20.0898 1.67657C21.3839 1.84881 22.1651 2.17674 22.7418 2.74787L23.2696 2.215L23.7973 1.68213C22.8949 0.788265 21.7453 0.383687 20.2877 0.189681C18.8508 -0.00156158 17.0054 0 14.6447 0V0.75ZM23.2696 2.215L22.7418 2.74787C23.3177 3.31826 23.6476 4.08856 23.8213 5.36532C23.9981 6.66446 24 8.37182 24 10.75H24.75H25.5C25.5 8.41443 25.5013 6.58679 25.3076 5.16312C25.1109 3.71706 24.7006 2.57674 23.7973 1.68213L23.2696 2.215ZM24.75 10.75H24V15.75H24.75H25.5V10.75H24.75ZM24.75 15.75H24C24 18.1283 23.9984 19.8359 23.8218 21.1352C23.6482 22.4122 23.3183 23.1821 22.7423 23.7517L23.2696 24.285L23.7969 24.8183C24.7013 23.9242 25.1116 22.7834 25.3081 21.3373C25.5016 19.9135 25.5 18.0854 25.5 15.75H24.75ZM23.2696 24.285L22.7423 23.7517C22.1648 24.3227 21.3832 24.6506 20.0892 24.823C18.7745 24.9981 17.0473 25 14.6447 25V25.75V26.5C17.0055 26.5 18.8506 26.5012 20.2873 26.3098C21.7448 26.1157 22.894 25.7111 23.7969 24.8183L23.2696 24.285ZM14.6447 25.75V25H12.75V25.75V26.5H14.6447V25.75ZM12.75 25.75V25C10.3473 25 8.61985 24.9984 7.30495 24.8234C6.01081 24.6512 5.22959 24.3233 4.65293 23.7521L4.12516 24.285L3.59738 24.8179C4.49988 25.7117 5.6494 26.1163 7.10705 26.3103C8.54394 26.5016 10.3893 26.5 12.75 26.5V25.75ZM4.12516 24.285L4.65293 23.7521C4.07703 23.1817 3.74711 22.4114 3.57342 21.1347C3.39668 19.8355 3.39474 18.1282 3.39474 15.75H2.64474H1.89474C1.89474 18.0856 1.89343 19.9132 2.08711 21.3369C2.28383 22.7829 2.69413 23.9233 3.59738 24.8179L4.12516 24.285ZM2.64474 15.75H3.39474V10.75H2.64474H1.89474V15.75H2.64474ZM9.97105 13.2175L10.6198 12.8412C10.1221 11.9831 9.89054 11.3011 9.74979 10.6092L9.01484 10.7587L8.27989 10.9083C8.45241 11.7564 8.74122 12.5919 9.32227 13.5938L9.97105 13.2175ZM9.01484 10.7587L9.74966 10.6086C9.58514 9.80344 9.95346 8.95653 10.6646 8.38223L10.1934 7.79875L9.72215 7.21527C8.67496 8.06097 7.9797 9.43906 8.28003 10.9089L9.01484 10.7587ZM10.1934 7.79875L10.6637 8.38295C10.6862 8.36487 10.6921 8.36658 10.6786 8.37033C10.6639 8.37438 10.6388 8.37721 10.609 8.3711C10.5797 8.36508 10.5596 8.35326 10.55 8.34575C10.5411 8.3388 10.5463 8.3398 10.5576 8.35983L11.2115 7.9925L11.8654 7.62517C11.6674 7.27278 11.3383 6.9895 10.9105 6.90171C10.4775 6.81287 10.0551 6.94718 9.72304 7.21455L10.1934 7.79875ZM11.2115 7.9925L10.558 8.3606L11.0544 9.24185L11.7079 8.87375L12.3613 8.50565L11.8649 7.6244L11.2115 7.9925ZM11.7079 8.87375L11.0544 9.2418C11.2592 9.60539 11.3814 9.82467 11.4545 9.99754C11.5203 10.1531 11.5141 10.1997 11.5128 10.2123L12.2586 10.2913L13.0045 10.3702C13.0423 10.0128 12.9571 9.69943 12.836 9.41308C12.7222 9.14408 12.5494 8.83961 12.3614 8.5057L11.7079 8.87375ZM12.2586 10.2913L11.5125 10.2148C11.5113 10.2269 11.5081 10.2732 11.4118 10.4114C11.3048 10.5651 11.1401 10.7542 10.8646 11.0677L11.428 11.5628L11.9914 12.0579C12.2443 11.77 12.4761 11.5079 12.6428 11.2686C12.8203 11.0137 12.9681 10.7249 13.0047 10.3677L12.2586 10.2913ZM11.428 11.5628L10.8646 11.0678L10.8615 11.0712L11.4249 11.5662L11.9884 12.0613L11.9914 12.0578L11.428 11.5628ZM11.4249 11.5662L10.862 11.0706L9.40815 12.7219L9.97105 13.2175L10.534 13.7131L11.9878 12.0619L11.4249 11.5662ZM9.97105 13.2175L9.32502 13.5985C10.528 15.6384 12.2429 17.335 14.3025 18.5245L14.6776 17.875L15.0527 17.2255C13.2157 16.1647 11.688 14.6525 10.6171 12.8365L9.97105 13.2175ZM14.6776 17.875L14.3072 18.5272C15.3184 19.1015 16.161 19.3865 17.0157 19.5568L17.1622 18.8213L17.3087 18.0857C16.6072 17.946 15.9163 17.716 15.048 17.2228L14.6776 17.875ZM17.1622 18.8213L17.0151 19.5567C18.4885 19.8515 19.8759 19.1702 20.732 18.1322L20.1534 17.655L19.5747 17.1778C18.9959 17.8798 18.1348 18.251 17.3094 18.0858L17.1622 18.8213ZM20.1534 17.655L20.7327 18.1313C21.0037 17.8017 21.1431 17.3779 21.0515 16.9407C20.9612 16.5101 20.6716 16.1843 20.3191 15.9904L19.9576 16.6475L19.5961 17.3046C19.6177 17.3165 19.619 17.3222 19.6116 17.3129C19.6035 17.3027 19.5902 17.2809 19.5834 17.2483C19.5764 17.2152 19.5795 17.1865 19.5845 17.1689C19.5891 17.1525 19.592 17.1569 19.574 17.1787L20.1534 17.655ZM19.9576 16.6475L20.3202 15.991L19.431 15.4998L19.0683 16.1562L18.7057 16.8127L19.5949 17.304L19.9576 16.6475ZM19.0683 16.1562L19.4296 15.499L19.4182 15.4928L19.057 16.15L18.6957 16.8073L18.7071 16.8135L19.0683 16.1562ZM19.057 16.15L19.4182 15.4927C19.083 15.3085 18.7781 15.1397 18.5089 15.0286C18.2222 14.9104 17.9112 14.8286 17.5573 14.8652L17.6346 15.6112L17.7119 16.3573C17.73 16.3554 17.7803 16.3507 17.9368 16.4153C18.1108 16.4871 18.3311 16.6069 18.6958 16.8073L19.057 16.15ZM17.6346 15.6112L17.5598 14.865C17.2039 14.9007 16.9149 15.045 16.6576 15.2205C16.4161 15.3852 16.1515 15.6143 15.8605 15.8648L16.3497 16.4333L16.8389 17.0017C17.1556 16.7292 17.347 16.566 17.5027 16.4598C17.6426 16.3644 17.6922 16.3592 17.7095 16.3575L17.6346 15.6112ZM3.90789 5.75V5H0.75V5.75V6.5H3.90789V5.75ZM3.90789 13.25V12.5H0.75V13.25V14H3.90789V13.25ZM3.90789 20.75V20H0.75V20.75V21.5H3.90789V20.75ZM16.3497 16.4333L15.8599 15.8652L14.1878 17.307L14.6776 17.875L15.1673 18.443L16.8395 17.0013L16.3497 16.4333Z" fill="#0D2C60"/>
</svg>
