<svg width="22" height="22" viewBox="0 0 22 22" fill="none" xmlns="http://www.w3.org/2000/svg">
<path d="M7.61985 10.4698L10.4692 7.61279L7.90802 5.04276L6.46215 6.48747L5.57891 5.60417L7.0173 4.15946L4.58214 1.72417L1.72532 4.58115L7.61985 10.4698ZM17.3929 20.2509L20.2497 17.3939L17.8158 14.9586L16.3712 16.3958L15.4892 15.5125L16.9251 14.0678L14.3802 11.5302L11.5296 14.3797L17.3929 20.2509ZM5.18095 20.7524H1.24752V16.8175L6.72912 11.3356L0 4.5824L4.58214 0L11.3674 6.76069L16.9401 1.18022C17.0773 1.04215 17.222 0.942762 17.3742 0.882046C17.5264 0.82133 17.6886 0.790972 17.8607 0.790972C18.0329 0.790972 18.1951 0.82133 18.3473 0.882046C18.4995 0.942762 18.6446 1.04215 18.7826 1.18022L20.8186 3.29613C20.9567 3.43337 21.0523 3.57809 21.1055 3.73029C21.1588 3.8825 21.185 4.04469 21.1841 4.21685C21.1833 4.38902 21.1567 4.54622 21.1043 4.68844C21.0519 4.83067 20.9571 4.9704 20.8198 5.10763L15.2933 10.6644L22 17.4176L17.4154 22L10.6625 15.2705L5.18095 20.7524ZM2.49504 19.5048H4.6495L16.9001 7.26097L14.7369 5.10015L2.49504 17.3502V19.5048ZM15.8335 6.17307L14.7382 5.10015L16.8989 7.26222L15.8335 6.17307Z" fill="#0D2C60"/>
</svg>
