<svg width="26" height="28" viewBox="0 0 26 28" fill="none" xmlns="http://www.w3.org/2000/svg">
<path d="M0.75 23.5H0H0.75ZM6.75 17V16.25V17ZM18.75 17V16.25V17ZM0.75 23.5H1.5C1.5 21.9565 2.06654 20.4871 3.05846 19.4125L2.50736 18.9038L1.95626 18.3951C0.697737 19.7585 0 21.5957 0 23.5H0.75ZM2.50736 18.9038L3.05846 19.4125C4.04852 18.34 5.37787 17.75 6.75 17.75V17V16.25C4.93954 16.25 3.21664 17.0297 1.95626 18.3951L2.50736 18.9038ZM6.75 17V17.75H18.75V17V16.25H6.75V17ZM18.75 17V17.75C20.1221 17.75 21.4515 18.34 22.4415 19.4125L22.9926 18.9038L23.5437 18.3951C22.2834 17.0297 20.5605 16.25 18.75 16.25V17ZM22.9926 18.9038L22.4415 19.4125C23.4335 20.4871 24 21.9565 24 23.5H24.75H25.5C25.5 21.5957 24.8023 19.7585 23.5437 18.3951L22.9926 18.9038ZM24.75 23.5H24C24 24.1816 23.7495 24.8243 23.3202 25.2894L23.8713 25.7981L24.4224 26.3068C25.1183 25.5529 25.5 24.5424 25.5 23.5H24.75ZM23.8713 25.7981L23.3202 25.2894C22.8928 25.7525 22.3265 26 21.75 26V26.75V27.5C22.7648 27.5 23.7246 27.0627 24.4224 26.3068L23.8713 25.7981ZM21.75 26.75V26H3.75V26.75V27.5H21.75V26.75ZM3.75 26.75V26C3.17352 26 2.60723 25.7525 2.17978 25.2894L1.62868 25.7981L1.07758 26.3068C1.77535 27.0627 2.73518 27.5 3.75 27.5V26.75ZM1.62868 25.7981L2.17978 25.2894C1.75047 24.8243 1.5 24.1816 1.5 23.5H0.75H0C0 24.5424 0.381666 25.5529 1.07758 26.3068L1.62868 25.7981ZM17.25 5.625H16.5C16.5 7.96083 14.7657 9.75 12.75 9.75V10.5V11.25C15.7049 11.25 18 8.67395 18 5.625H17.25ZM12.75 10.5V9.75C10.7343 9.75 9 7.96083 9 5.625H8.25H7.5C7.5 8.67395 9.79511 11.25 12.75 11.25V10.5ZM8.25 5.625H9C9 3.28917 10.7343 1.5 12.75 1.5V0.75V0C9.79511 0 7.5 2.57605 7.5 5.625H8.25ZM12.75 0.75V1.5C14.7657 1.5 16.5 3.28917 16.5 5.625H17.25H18C18 2.57605 15.7049 0 12.75 0V0.75Z" fill="#0D2C60"/>
</svg>
