<svg width="25" height="25" viewBox="0 0 25 25" fill="none" xmlns="http://www.w3.org/2000/svg">
<path d="M24.295 7.66328L12.6819 0.552148C12.6259 0.517908 12.5635 0.5 12.5 0.5C12.4365 0.5 12.3741 0.517908 12.3181 0.552148L0.705042 7.66328C0.643108 7.70118 0.591313 7.75769 0.555196 7.82678C0.519079 7.89587 0.5 7.97493 0.5 8.05551C0.5 8.13608 0.519079 8.21514 0.555196 8.28423C0.591313 8.35332 0.643108 8.40983 0.705042 8.44773L3.59668 10.2188V15.8655C3.59447 16.1928 3.69789 16.5095 3.88701 16.7544C5.11122 18.32 7.85479 20.9467 12.5 20.9467C14.5323 20.9467 16.1968 20.4444 17.5323 19.7478V24.0556C17.5323 24.1734 17.5731 24.2865 17.6457 24.3698C17.7183 24.4532 17.8167 24.5 17.9194 24.5C18.0221 24.5 18.1205 24.4532 18.1931 24.3698C18.2657 24.2865 18.3065 24.1734 18.3065 24.0556V19.2978C19.3587 18.6342 20.3072 17.7739 21.113 16.7522C21.3019 16.5072 21.4053 16.1906 21.4033 15.8633V10.2188L24.295 8.44773C24.3569 8.40983 24.4087 8.35332 24.4448 8.28423C24.4809 8.21514 24.5 8.13608 24.5 8.05551C24.5 7.97493 24.4809 7.89587 24.4448 7.82678C24.4087 7.75769 24.3569 7.70118 24.295 7.66328ZM12.5 20.0555C8.16157 20.0555 5.60477 17.6111 4.46766 16.1578C4.40502 16.0775 4.37054 15.9733 4.37089 15.8655V10.6922L12.3181 15.5589C12.3741 15.5931 12.4365 15.611 12.5 15.611C12.5635 15.611 12.6259 15.5931 12.6819 15.5589L17.5323 12.5889V18.7589C16.2336 19.5 14.57 20.0555 12.5 20.0555ZM20.6291 15.8655C20.629 15.9736 20.5946 16.0778 20.5323 16.1589C19.8833 16.9825 19.1335 17.6936 18.3065 18.27V12.1144L20.6291 10.6922V15.8655ZM18.2494 11.1422C18.2134 11.0747 18.1622 11.0194 18.1013 10.9822L12.6819 7.66328C12.5915 7.61026 12.4866 7.60014 12.3898 7.6351C12.2929 7.67006 12.2119 7.74729 12.1642 7.85017C12.1165 7.95304 12.1059 8.07332 12.1346 8.18509C12.1634 8.29687 12.2293 8.39118 12.3181 8.44773L17.4839 11.6111L12.5 14.6633L1.70957 8.05551L12.5 1.44771L23.2904 8.05551L18.2494 11.1422Z" fill="#0D2C60" stroke="#0D2C60"/>
</svg>
