<svg width="26" height="26" viewBox="0 0 26 26" fill="none" xmlns="http://www.w3.org/2000/svg">
<path d="M12.75 12.75V4.75M6.08333 15.4167V4.75M19.4167 18.0833V4.75M3.95 0.75H21.55C22.3987 0.75 23.2126 1.08714 23.8127 1.68726C24.4129 2.28737 24.75 3.10131 24.75 3.95V21.55C24.75 22.3987 24.4129 23.2126 23.8127 23.8127C23.2126 24.4129 22.3987 24.75 21.55 24.75H3.95C3.10131 24.75 2.28737 24.4129 1.68726 23.8127C1.08714 23.2126 0.75 22.3987 0.75 21.55V3.95C0.75 3.52977 0.832771 3.11366 0.993586 2.72541C1.1544 2.33717 1.39011 1.98441 1.68726 1.68726C2.28737 1.08714 3.10131 0.75 3.95 0.75Z" stroke="#0D2C60" stroke-width="1.5" stroke-miterlimit="10" stroke-linecap="round" stroke-linejoin="round"/>
</svg>
